<svg xmlns="http://www.w3.org/2000/svg" width="24" height="24" fill="none" viewBox="0 0 24 24">
    <path fill="#34394F" d="M18.194 11.71v.58c0 .32-.262.581-.581.581H12.87v4.742c0 .32-.261.58-.58.58h-.581c-.32 0-.581-.26-.581-.58V12.87H6.387c-.32 0-.58-.261-.58-.58v-.581c0-.32.26-.581.58-.581h4.742V6.387c0-.32.261-.58.58-.58h.581c.32 0 .581.26.581.58v4.742h4.742c.32 0 .58.261.58.58zM24 12c0 6.629-5.371 12-12 12S0 18.629 0 12 5.371 0 12 0s12 5.371 12 12zm-1.548 0c0-5.802-4.709-10.452-10.452-10.452C6.198 1.548 1.548 6.256 1.548 12c0 5.802 4.708 10.452 10.452 10.452 5.802 0 10.452-4.709 10.452-10.452z"/>
</svg>
